<?xml version="1.0" encoding="UTF-8"?>
<svg xmlns="http://www.w3.org/2000/svg" version="1.1" viewBox="0 0 32 40">
  <!-- Generator: Adobe Illustrator 29.7.1, SVG Export Plug-In . SVG Version: 2.1.1 Build 8)  -->
  <g id="Layer_1" display="none">
    <path d="M30,17h-5v-3c0-.31-.15-.61-.4-.8l-7.6-5.7v-.5h5c.55,0,1-.45,1-1V2c0-.55-.45-1-1-1h-6c-.55,0-1,.45-1,1v5.5l-7.6,5.7c-.25.19-.4.49-.4.8v3H2c-.55,0-1,.45-1,1v12c0,.55.45,1,1,1h28c.55,0,1-.45,1-1v-12c0-.55-.45-1-1-1ZM17,5v-2h4v2M3,19h4v10H3v-10ZM17.5,29h-3v-4h3v4ZM23,29h-3.5v-5c0-.55-.45-1-1-1h-5c-.55,0-1,.45-1,1v5h-3.5v-14.5l7-5.25,7,5.25v14.5ZM29,29h-4v-10h4v10Z" fill="#06343a"/>
    <path d="M12,16c0,2.21,1.79,4,4,4s4-1.79,4-4-1.79-4-4-4-4,1.79-4,4ZM18,16c0,1.1-.9,2-2,2s-2-.9-2-2,.9-2,2-2,2,.9,2,2Z" fill="#06343a"/>
  </g>
  <g id="Layer_1_copy">
    <path d="M25.72,29.56" fill="#06343a"/>
    <rect x="15.64" y="5.07" width="7.46" height="4.81" rx=".88" ry=".88" fill="#06343a"/>
    <path d="M24.6,17.85l-8.06-6.93c-.52-.44-1.28-.43-1.78.03l-7.43,6.9c-.27.25-.43.61-.43.98v16.25c0,.74.6,1.33,1.33,1.33h15.49c.74,0,1.33-.6,1.33-1.33v-16.22c0-.39-.17-.76-.46-1.01ZM15.64,22.35c-1.91,0-3.45-1.55-3.45-3.45s1.55-3.45,3.45-3.45,3.45,1.55,3.45,3.45-1.55,3.45-3.45,3.45Z" fill="#06343a"/>
    <path d="M1.15,23.18h4.45v13.23H1.15c-.65,0-1.18-.53-1.18-1.18v-10.87c0-.65.53-1.18,1.18-1.18Z" fill="#06343a"/>
    <path d="M27.55,23.18h4.45v13.23h-4.45c-.65,0-1.18-.53-1.18-1.18v-10.88c0-.65.53-1.18,1.18-1.18Z" transform="translate(58.37 59.59) rotate(-180)" fill="#06343a"/>
  </g>
</svg>