<?xml version="1.0" encoding="UTF-8"?>
<svg id="Layer_1" xmlns="http://www.w3.org/2000/svg" version="1.1" viewBox="0 0 50 50">
  <!-- Generator: Adobe Illustrator 29.7.1, SVG Export Plug-In . SVG Version: 2.1.1 Build 8)  -->
  <path d="M49.32,27.11c0,.27-.75.95-2.26,2.02-.95.66-1.89,1.32-2.84,1.97.51,2.12.77,3.42.77,3.92,0,3-1.23,5.32-3.68,6.98-.38.26-1.96.9-4.72,1.92-4.19,1.56-8.46,2.33-12.82,2.33-2.55,0-5.38-.43-8.49-1.28-.14-.05-.85-.32-2.12-.82-.88-.29-2.17-.83-3.85-1.61-1.36-.83-2.58-2.35-3.66-4.55-.26-.55-.44-1.26-.55-2.14-.08-.75-.15-1.5-.22-2.24-.75-.19-1.51-.39-2.26-.6-1.03-.29-1.54-.72-1.54-1.3,0-.14,0-.26.02-.34l4.59-4.81h-.24c-.18,0-.43.04-.76.13-.33.09-.58.13-.76.13-.42,0-.78-.16-1.08-.49-.3-.33-.46-.7-.46-1.12,0-1.35.38-2.38,1.15-3.1.91-.67,1.83-1.34,2.74-2-.1-.66-.14-1.52-.14-2.6,0-1.48.11-2.64.34-3.49.18-.69.61-1.76,1.3-3.22,1.41-2.98,4.27-5.12,8.59-6.4,2.76-.82,4.48-1.23,5.17-1.23h5.53c3.03,0,5.88.33,8.54.99,3.48.87,5.93,2.18,7.36,3.95.18.22.56.99,1.15,2.29.56,1.23.84,2.6.84,4.09,0,.18-.18,1.37-.55,3.58,1.41.75,2.12,1.53,2.12,2.33,0,.26-.07.48-.22.67.26,1.19.38,1.79.38,1.8,0,.37-.16.67-.48.91.9.61,1.85,1.32,2.86,2.12.14.29.22.68.22,1.18ZM39.27,28.7l-.07-.53c-.06,0-.16.06-.29.17v.29l.36.07ZM42.97,14.43c0-1.07-.06-1.86-.19-2.36-.45-1.72-1.39-3.07-2.81-4.07-.51-.35-1.42-.78-2.72-1.28-1.3-.5-2.28-.8-2.93-.91-3.29-.55-6.24-.82-8.85-.82-4.06,0-7.69.75-10.9,2.24-1.23.58-1.9.89-2,.94-.72.38-1.31.82-1.76,1.3-1.23,1.32-2.08,2.97-2.55,4.96-.29,1.22-.43,1.82-.43,1.8v3.85c.26.43.71,1.03,1.35,1.78.61.5,1.99,1.1,4.14,1.8,2.15.71,3.65,1.06,4.5,1.06h7.79c1.33,0,3.69-.33,7.07-.99.87-.11,2.15-.37,3.85-.77,3.54-1.25,5.61-2.98,6.18-5.17.18-.67.26-1.8.26-3.37ZM38.42,28.94c0-.35-.12-.53-.36-.53-.35,0-.75.13-1.2.38v.77c.22.21.42.31.58.31.22,0,.44-.1.66-.3.22-.2.33-.41.33-.64ZM45.54,22.59c-.22-.35-.59-.73-1.11-1.13,0-.19.08-.67.24-1.42-.16-.06-.54-.25-1.13-.55-1.23,1.56-2.16,2.52-2.77,2.89-2.52,1.54-5.43,2.63-8.73,3.27-.3.06-1.88.18-4.74.36-2.28.14-3.54.22-3.8.22-2.73,0-5.54-.17-8.44-.51-1.54-.18-2.98-.59-4.33-1.23-1.6-.77-2.72-1.73-3.34-2.89-.95.58-1.59,1-1.92,1.28-.79.63-1.2,1.21-1.25,1.76h.29c.32,0,.79-.08,1.42-.23.63-.15,1.1-.23,1.42-.23.29,0,.77.31,1.45.94.68.63,1.41.94,2.18.94.1,0,.24-.02.43-.07.19-.05.34-.07.43-.07.42,0,1.07.47,1.95,1.42,1.11,1.17,1.73,1.8,1.88,1.9.48.34,1.71.51,3.68.51.11,0,.41.14.89.41.48.27.8.43.96.46.37-.22.94-.53,1.71-.91,1.76-.71,4.57-1.06,8.42-1.06.21,0,.51.05.91.16.4.1.71.16.91.16h1.8c0-.8.06-1.36.19-1.66.05-.13.24-.34.58-.63.34-.29.57-.43.7-.43h3.75c.58,0,1.21-.27,1.9-.82.63-.74,1.33-1.51,2.12-2.31.14-.02.35-.06.63-.12.16-.1.4-.22.72-.38ZM47.04,26.73l-2.55-1.92c-1.17,1.17-2.2,2.08-3.08,2.74.21.74.31,1.15.31,1.25,0,.13-.11.51-.34,1.13-.22.63-.38,1.01-.48,1.15-.16.27-.38.52-.67.75-.79.63-1.98,1.14-3.58,1.54-1.3.26-2.6.51-3.9.77-.43.13-1.09.3-1.97.51-.42.06-1.68.15-3.8.26-1.89.1-3.03.14-3.42.14-2.41,0-5.26-.43-8.56-1.3-.45-.08-1.1-.25-1.95-.51-.24-.19-.63-.47-1.18-.82-.29-.08-.71-.22-1.25-.43-1.92-.87-2.81-2.69-2.67-5.46l-4.52,4.5c2.21.63,5.52,1.61,9.91,2.96.58.24,1.46.56,2.65.96,4.27.98,10.62,2.61,19.05,4.88.75-1.54,2.05-3.38,3.9-5.51.79-1.01,2.04-2.45,3.78-4.33,1.01-.66,2.45-1.75,4.33-3.27ZM43.28,34.59c0-.64-.12-1.43-.36-2.36-1.14,1.19-2.78,3.02-4.93,5.51-.66.98-1.73,2.38-3.22,4.21l-10.9-3.22c-.93.32-2.55.48-4.86.48-1.14,0-2.04-.09-2.69-.26-.26-.11-.65-.25-1.18-.41-.22-.03-.56-.09-1.01-.17-.45-.08-1.11-.39-1.97-.92-.87-.54-1.45-.99-1.76-1.36-.16-.19-.3-.66-.43-1.4-.35-.29-.85-.48-1.49-.58-.53-.06-1.06-.14-1.59-.22v.34c0,2.49,1.18,4.68,3.54,6.57.14.13.38.3.7.51,1.09.63,2.66,1.19,4.72,1.71,1.92.48,3.59.76,5,.84.42.02,1.22.1,2.41.24,1.01.13,1.82.19,2.43.19,3.77,0,8.16-1.07,13.18-3.22,1.32-.56,2.38-1.43,3.2-2.61.82-1.18,1.23-2.47,1.23-3.86ZM15.95,30.17c-.13-.13-.26-.19-.38-.19v.46c.08,0,.21-.09.38-.26ZM14.46,29.78v-.1c0-.22-.13-.34-.38-.34s-.38.13-.38.38c0,.05.01.12.03.23.02.1.04.18.04.23h.43c.18-.18.26-.31.26-.41ZM13.52,29.49v-.84c-.06-.13-.18-.2-.34-.22-.16-.02-.32-.04-.47-.07-.15-.03-.46-.2-.92-.51-.32-.21-.68-.31-1.08-.31-.67,0-1.01.15-1.01.46,0,.16.1.38.3.66.2.28.37.44.52.49.29.03.72.1,1.3.22.27.45.53.67.77.67-.1,0,.22-.18.94-.55ZM17.69,36.97c0-.3-.17-.55-.51-.75-.4.16-.6.39-.6.7,0,.42.21.63.63.63.32,0,.48-.19.48-.58ZM15.71,36.83v-.58s-.21-.15-.53-.41c-.21-.16-.41-.24-.6-.24-.08,0-.18.04-.31.12-.13.08-.23.12-.31.12-.1,0-.21-.05-.35-.16-.14-.11-.25-.16-.35-.16s-.23.01-.41.04c-.18.02-.31.03-.41.03-.05.1-.07.21-.07.34v.12c1.01.71,1.7,1.06,2.07,1.06.59,0,1.02-.1,1.28-.29ZM34.57,7.5c0,.27-.27.41-.82.41h-.41c-.14,0-.38-.12-.7-.37-.32-.25-.48-.45-.48-.59,0-.13.03-.23.1-.31h1.32c.3,0,.63.29.99.87ZM35.61,9.91c-.64.48-1.15.72-1.54.72-.5,0-.75-.18-.75-.55,0-.16.17-.37.52-.63.35-.26.61-.38.78-.38.05,0,.38.16.99.48v.36ZM29.33,7c0,.29-.26.43-.77.43h-.36c-.37,0-.85-.36-1.44-1.08.32-.22.6-.34.84-.34,1.15,0,1.73.33,1.73.99ZM31.13,8.56c-.45.59-.75.89-.89.89-.27,0-.58-.06-.91-.19-.42-.16-.63-.34-.63-.55,0-.5.53-.75,1.59-.75.16,0,.44.2.84.6ZM29.71,12.1c-.47.53-1.19.79-2.17.79-.74,0-1.11-.19-1.11-.58,0-.27.26-.51.79-.72.43-.18.81-.26,1.13-.26.11,0,.27.03.48.09.21.06.37.08.48.08.18,0,.3-.05.38-.14v.75ZM24.57,7.5c0,.51-.59.77-1.76.77-.27,0-.47-.1-.6-.31v-.6c.48-.37.87-.55,1.18-.55.79,0,1.18.23,1.18.7ZM25.58,9.72c.02.34-.27.64-.87.91-.51.26-.95.38-1.32.38-.51,0-.77-.18-.77-.53,0-.69.71-1.03,2.14-1.03.42,0,.69.09.82.26ZM19.78,8.25c0,.35-.22.68-.66.99-.44.3-.84.46-1.21.46-.27,0-.55-.08-.84-.24v-.7c.88-.58,1.39-.87,1.52-.87h1.11c.06.06.1.18.1.36ZM23.97,14.07c0,.11,0,.22-.02.31-.32.21-.57.31-.75.31-.3,0-.62-.12-.95-.37-.33-.25-.49-.52-.49-.81,0-.3.17-.46.51-.46,1.14,0,1.71.34,1.71,1.01ZM20.19,11.33c0,.21-.29.49-.86.83-.57.34-.97.52-1.21.52-.1,0-.23-.03-.41-.08-.18-.06-.31-.09-.41-.09l-.1-.1v-.43c.79-.79,1.53-1.18,2.24-1.18.5,0,.75.18.75.53ZM15.09,11.18c0,.42-.3.63-.89.63-.91,0-1.37-.31-1.37-.94,0-.53.25-.79.75-.79.3,0,.63.11.99.34.35.22.53.48.53.77ZM34.26,7.55c-.53-.4-.88-.6-1.06-.6h-.41c.13.47.45.7.96.7.06,0,.15-.02.26-.05.11-.03.19-.05.24-.05ZM35.13,9.84c-.02-.08-.04-.21-.07-.38h-.51c-.21,0-.43.21-.67.63.45-.06.87-.14,1.25-.24ZM28.7,6.88c-.02-.06-.04-.17-.07-.31-.48-.16-.71-.24-.7-.24-.05,0-.13.02-.24.05-.11.03-.19.05-.24.05.3.3.51.46.6.46h.65ZM30.61,8.63l-1.08-.12c-.11.11-.17.22-.17.31.08,0,.2.01.37.04.17.02.29.03.37.03l.51-.26ZM29.33,11.88c-.13-.1-.3-.14-.51-.14-.37,0-.9.17-1.59.51.11,0,.28.03.52.1.23.06.41.1.54.1.11,0,.46-.18,1.03-.55ZM24.09,7.36h-.89c-.08,0-.2.09-.36.26.26.13.47.19.63.19.14,0,.35-.15.63-.46ZM24.88,10.03l-.75-.1c-.18.1-.45.24-.82.43.37,0,.89-.11,1.56-.34ZM19.08,8.44h-.91l-.48.48v.29h.48c.13,0,.43-.26.91-.77ZM23.32,14.14v-.29c-.19-.21-.34-.31-.43-.31h-.58c.03.08.19.28.48.6h.53ZM19.47,11.35h-.34c-.22,0-.63.25-1.23.75h.36c.29-.13.69-.38,1.2-.75ZM14.53,11.26c-.21-.42-.46-.63-.75-.63h-.34v.46s.08.03.16.09c.07.06.14.08.21.08h.72Z"/>
</svg>