<?xml version="1.0"?>

<!DOCTYPE svg PUBLIC '-//W3C//DTD SVG 1.0//EN' 'http://www.w3.org/TR/2001/REC-SVG-20010904/DTD/svg10.dtd'>
<svg fill-opacity="1" xmlns:xlink="http://www.w3.org/1999/xlink" color-rendering="auto" color-interpolation="auto" text-rendering="auto" stroke="black" stroke-linecap="square" stroke-miterlimit="10" shape-rendering="auto" stroke-opacity="1" fill="black" stroke-dasharray="none" font-weight="normal" stroke-width="1" xmlns="http://www.w3.org/2000/svg" font-family="&apos;Dialog&apos;" font-style="normal" stroke-linejoin="miter" font-size="12" stroke-dashoffset="0" image-rendering="auto">
  <!--Unicode Character 'HAMBURGER' (U+1F354)-->
  <defs id="genericDefs" />
  <g>
    <g>
      <path d="M293.4844 296.5781 Q293.4844 298.9688 280.2656 308.3906 Q271.9688 314.1562 263.6719 319.9219 Q268.1719 338.4844 268.1719 342.8438 Q268.1719 369.1406 246.6562 383.625 Q243.2812 385.875 219.0938 394.875 Q182.3906 408.5156 144.1406 408.5156 Q121.7812 408.5156 94.5 401.0625 Q93.2344 400.6406 82.125 396.2812 Q74.3906 393.75 59.625 386.8594 Q47.6719 379.5469 38.25 360.2812 Q36 355.5 35.0156 347.7656 Q34.3125 341.1562 33.75 334.6875 Q27.1406 333 20.5312 331.1719 Q11.5312 328.6406 11.5312 323.5781 Q11.5312 322.3125 11.6719 321.6094 L38.5312 293.4844 L37.125 293.4844 Q35.5781 293.4844 32.6875 294.2656 Q29.8125 295.0312 28.2656 295.0312 Q24.6094 295.0312 21.9375 292.1562 Q19.2656 289.2656 19.2656 285.6094 Q19.2656 273.7969 26.0156 267.4688 Q34.0312 261.5625 42.0469 255.7969 Q41.2031 250.0312 41.2031 240.6094 Q41.2031 227.6719 43.1719 220.2188 Q44.7188 214.1719 50.7656 201.375 Q63.1406 175.2188 100.9688 163.9688 Q125.1562 156.7969 131.2031 156.7969 L163.5469 156.7969 Q190.125 156.7969 213.4688 162.5625 Q243.9844 170.1562 256.5 185.625 Q258.0469 187.5938 263.25 198.9844 Q268.1719 209.8125 268.1719 222.8906 Q268.1719 224.4375 264.9375 243.8438 Q277.3125 250.4531 277.3125 257.4844 Q277.3125 259.7344 276.0469 261.4219 Q278.2969 271.8281 278.2969 271.9688 Q278.2969 275.2031 275.4844 277.3125 Q283.3594 282.6562 292.2188 289.6875 Q293.4844 292.2188 293.4844 296.5781 ZM234.7031 305.8594 L234.2812 302.7656 Q233.7188 302.7656 232.5938 303.75 L232.5938 305.4375 L234.7031 305.8594 ZM256.3594 222.4688 Q256.3594 213.0469 255.2344 208.6875 Q251.2969 193.6406 238.7812 184.9219 Q234.2812 181.8281 222.8906 177.4688 Q211.5 173.1094 205.7344 172.125 Q176.9062 167.3438 153.9844 167.3438 Q118.4062 167.3438 90.2812 180.4219 Q79.4531 185.4844 78.6094 185.9062 Q72.2812 189.2812 68.3438 193.5 Q57.5156 205.0312 53.4375 222.4688 Q50.9062 233.1562 50.9062 233.0156 L50.9062 255.5156 Q53.1562 259.3125 58.7812 265.9219 Q64.125 270.2812 82.9688 276.4688 Q101.8125 282.6562 109.2656 282.6562 L154.8281 282.6562 Q166.5 282.6562 196.1719 276.8906 Q203.7656 275.9062 218.6719 272.3906 Q249.75 261.4219 254.8125 242.1562 Q256.3594 236.25 256.3594 222.4688 ZM229.7812 307.2656 Q229.7812 304.1719 227.6719 304.1719 Q224.5781 304.1719 220.6406 306.4219 L220.6406 310.9219 Q222.6094 312.75 224.0156 312.75 Q225.9844 312.75 227.875 311 Q229.7812 309.2344 229.7812 307.2656 ZM271.4062 270.1406 Q269.4375 267.0469 264.9375 263.5312 Q264.9375 261.8438 266.3438 255.2344 Q264.9375 254.6719 259.7344 252 Q248.9062 265.6406 243.5625 268.875 Q221.4844 282.375 192.5156 288 Q189.8438 288.5625 164.8125 290.1094 Q144.8438 291.375 142.5938 291.375 Q118.6875 291.375 93.2344 288.4219 Q79.7344 286.875 67.9219 281.25 Q53.8594 274.5 48.375 264.375 Q40.0781 269.4375 37.125 271.8281 Q30.2344 277.3125 29.8125 282.0938 L31.5 282.0938 Q34.3125 282.0938 39.7969 280.7656 Q45.2812 279.4219 48.0938 279.4219 Q50.625 279.4219 56.5938 284.9062 Q62.5781 290.3906 69.3281 290.3906 Q70.1719 290.3906 71.8594 289.9688 Q73.5469 289.5469 74.3906 289.5469 Q78.0469 289.5469 85.7812 297.8438 Q95.4844 308.1094 96.75 308.9531 Q100.9688 311.9062 118.2656 311.9062 Q119.25 311.9062 123.4688 314.2969 Q127.6875 316.6875 129.0938 316.9688 Q132.3281 315 139.0781 311.625 Q154.5469 305.4375 188.2969 305.4375 Q190.125 305.4375 193.6406 306.3594 Q197.1562 307.2656 198.9844 307.2656 L209.5312 307.2656 Q209.5312 300.2344 210.6562 297.5625 Q211.0781 296.4375 214.0312 293.9062 Q216.9844 291.375 218.1094 291.375 L240.0469 291.375 Q245.1094 291.375 251.1562 286.5938 Q256.6406 280.125 263.5312 273.0938 Q264.7969 272.9531 267.1875 272.3906 Q268.5938 271.5469 271.4062 270.1406 ZM280.125 294.3281 L265.2188 283.0781 Q254.9531 293.3438 247.2188 299.1094 Q249.0469 305.5781 249.0469 306.4219 Q249.0469 307.5469 247.0781 313.0312 Q245.1094 318.5156 244.2656 319.7812 Q242.8594 322.1719 240.3281 324.1406 Q233.4375 329.625 219.375 333.1406 Q207.9844 335.3906 196.5938 337.6406 Q192.7969 338.7656 185.0625 340.5938 Q181.4062 341.1562 162.8438 342.1406 Q146.25 342.9844 142.875 342.9844 Q121.7812 342.9844 92.8125 335.3906 Q88.875 334.6875 81.4219 332.4375 Q79.3125 330.75 74.5312 327.6562 Q72 326.9531 67.2188 325.125 Q50.3438 317.5312 51.6094 293.2031 L25.1719 319.5 Q44.5781 324.9844 83.1094 336.7969 Q88.1719 338.9062 98.5781 342.4219 Q135.9844 351 209.9531 370.9688 Q216.5625 357.4688 232.7344 338.7656 Q239.625 329.9062 254.8125 313.4531 Q263.6719 307.6875 280.125 294.3281 ZM258.1875 340.3125 Q258.1875 334.6875 256.0781 326.5312 Q246.0938 336.9375 227.25 358.7344 Q221.4844 367.3125 208.4062 383.3438 L144.7031 364.5 Q136.5469 367.3125 116.2969 367.3125 Q106.3125 367.3125 100.5469 365.7656 Q98.2969 364.7812 93.6562 363.375 Q91.6875 363.0938 87.75 362.3906 Q83.8125 361.6875 76.2188 356.9844 Q68.625 352.2656 65.9531 349.0312 Q64.5469 347.3438 63.4219 340.875 Q60.3281 338.3438 54.7031 337.5 Q50.0625 336.9375 45.4219 336.2344 L45.4219 338.2031 Q45.4219 360 66.0938 376.5938 Q67.3594 377.7188 70.1719 379.5469 Q79.7344 385.0312 97.7344 389.5312 Q114.6094 393.75 126.9844 394.4531 Q130.6406 394.5938 141.0469 395.8594 Q149.9062 396.9844 155.25 396.9844 Q188.2969 396.9844 232.3125 378.1406 Q243.8438 373.2188 251.0156 362.8906 Q258.1875 352.5469 258.1875 340.3125 ZM98.4375 314.4375 Q97.3125 313.3125 96.1875 313.3125 L96.1875 315.9844 Q96.8906 315.9844 98.4375 314.4375 ZM89.7188 312.1875 L89.7188 311.625 Q89.7188 309.6562 87.4688 309.6562 Q85.2188 309.6562 85.2188 311.9062 Q85.2188 312.3281 85.4219 313.25 Q85.6406 314.1562 85.6406 314.5781 L88.1719 314.5781 Q89.7188 313.0312 89.7188 312.1875 ZM84.2344 310.5 L84.2344 305.5781 Q83.6719 304.4531 82.2656 304.3125 Q80.8594 304.1719 79.5156 303.8906 Q78.1875 303.6094 74.1094 300.9375 Q71.2969 299.1094 67.7812 299.1094 Q61.875 299.1094 61.875 301.7812 Q61.875 303.1875 63.625 305.6562 Q65.3906 308.1094 66.6562 308.5312 Q69.1875 308.8125 74.25 309.7969 Q76.6406 313.7344 78.75 313.7344 Q77.9062 313.7344 84.2344 310.5 ZM108.5625 354.2344 Q108.5625 351.5625 105.6094 349.875 Q102.0938 351.2812 102.0938 353.9531 Q102.0938 357.6094 105.75 357.6094 Q108.5625 357.6094 108.5625 354.2344 ZM97.0312 353.3906 L97.0312 350.0156 Q96.75 349.875 93.9375 347.625 Q92.1094 346.2188 90.4219 346.2188 Q89.7188 346.2188 88.5938 346.9219 Q87.4688 347.625 86.7656 347.625 Q85.9219 347.625 84.7188 346.7188 Q83.5312 345.7969 82.6875 345.7969 Q81.8438 345.7969 80.2969 346.0156 Q78.75 346.2188 77.9062 346.2188 Q77.4844 347.0625 77.4844 348.1875 L77.4844 348.8906 Q86.3438 355.0781 89.5781 355.0781 Q94.7812 355.0781 97.0312 353.3906 ZM207.2812 181.9688 Q207.2812 184.3594 202.5 184.3594 L200.1094 184.3594 Q198.8438 184.3594 196.0312 182.1875 Q193.2188 180 193.2188 178.7344 Q193.2188 177.6094 193.7812 176.9062 L201.5156 176.9062 Q204.1875 176.9062 207.2812 181.9688 ZM213.3281 196.0312 Q207.7031 200.25 204.3281 200.25 Q199.9688 200.25 199.9688 197.0156 Q199.9688 195.6094 202.9844 193.3594 Q206.0156 191.1094 207.5625 191.1094 Q207.9844 191.1094 213.3281 193.9219 L213.3281 196.0312 ZM176.625 179.0156 Q176.625 181.5469 172.125 181.5469 L170.0156 181.5469 Q166.7812 181.5469 161.5781 175.2188 Q164.3906 173.25 166.5 173.25 Q176.625 173.25 176.625 179.0156 ZM187.1719 188.1562 Q183.2344 193.3594 181.9688 193.3594 Q179.5781 193.3594 176.625 192.2344 Q172.9688 190.8281 172.9688 189 Q172.9688 184.6406 182.25 184.6406 Q183.6562 184.6406 187.1719 188.1562 ZM178.875 208.8281 Q174.7969 213.4688 166.2188 213.4688 Q159.75 213.4688 159.75 210.0938 Q159.75 207.7031 164.3906 205.875 Q168.1875 204.3281 171 204.3281 Q171.9844 204.3281 173.8125 204.8281 Q175.6406 205.3125 176.625 205.3125 Q178.1719 205.3125 178.875 204.4688 L178.875 208.8281 ZM148.7812 181.9688 Q148.7812 186.4688 138.5156 186.4688 Q136.125 186.4688 135 184.6406 L135 181.125 Q139.2188 177.8906 141.8906 177.8906 Q148.7812 177.8906 148.7812 181.9688 ZM154.6875 194.9062 Q154.8281 197.8594 149.625 200.25 Q145.125 202.5 141.8906 202.5 Q137.3906 202.5 137.3906 199.4062 Q137.3906 193.3594 149.9062 193.3594 Q153.5625 193.3594 154.6875 194.9062 ZM120.7969 186.3281 Q120.7969 189.4219 116.9219 192.0938 Q113.0625 194.7656 109.8281 194.7656 Q107.4375 194.7656 104.9062 193.3594 L104.9062 189.2812 Q112.6406 184.2188 113.7656 184.2188 L120.2344 184.2188 Q120.7969 184.7812 120.7969 186.3281 ZM145.2656 220.3594 Q145.2656 221.3438 145.125 222.1875 Q142.3125 224.0156 140.7656 224.0156 Q138.0938 224.0156 135.2031 221.8438 Q132.3281 219.6562 132.3281 217.125 Q132.3281 214.4531 135.2812 214.4531 Q145.2656 214.4531 145.2656 220.3594 ZM123.1875 204.3281 Q123.1875 206.1562 118.1875 209.1875 Q113.2031 212.2031 111.0938 212.2031 Q110.25 212.2031 108.7031 211.7188 Q107.1562 211.2188 106.3125 211.2188 L105.75 210.6562 L105.75 208.125 Q112.6406 201.2344 118.8281 201.2344 Q123.1875 201.2344 123.1875 204.3281 ZM93.375 203.4844 Q93.375 207.1406 88.1719 207.1406 Q80.1562 207.1406 80.1562 201.6562 Q80.1562 197.0156 84.5156 197.0156 Q87.1875 197.0156 90.2812 198.9844 Q93.375 200.9531 93.375 203.4844 ZM205.4531 182.25 Q200.8125 178.7344 199.2656 178.7344 L196.875 178.7344 Q198 182.8125 202.5 182.8125 Q203.0625 182.8125 204.0469 182.5312 Q205.0312 182.25 205.4531 182.25 ZM210.5156 195.6094 Q210.375 194.9062 210.0938 193.3594 L207.1406 193.3594 Q205.3125 193.3594 203.2031 197.0156 Q207.1406 196.4531 210.5156 195.6094 ZM172.9688 178.3125 Q172.8281 177.75 172.5469 176.4844 Q168.3281 175.0781 168.4688 175.0781 Q168.0469 175.0781 167.0625 175.3594 Q166.0781 175.6406 165.6562 175.6406 Q168.3281 178.3125 169.1719 178.3125 L172.9688 178.3125 ZM184.0781 188.5781 L177.75 187.875 Q176.7656 188.8594 176.7656 189.7031 Q177.4688 189.7031 178.9375 189.9219 Q180.4219 190.125 181.125 190.125 L184.0781 188.5781 ZM176.625 207.5625 Q175.5 206.7188 173.6719 206.7188 Q170.4375 206.7188 164.3906 209.6719 Q165.375 209.6719 167.4062 210.2344 Q169.4531 210.7969 170.5781 210.7969 Q171.5625 210.7969 176.625 207.5625 ZM145.9688 181.125 L140.7656 181.125 Q140.0625 181.125 138.6562 182.6719 Q140.9062 183.7969 142.3125 183.7969 Q143.5781 183.7969 145.9688 181.125 ZM150.6094 196.7344 L146.25 196.1719 Q144.7031 197.0156 141.4688 198.7031 Q144.7031 198.7031 150.6094 196.7344 ZM116.7188 187.4531 L111.375 187.4531 L108.5625 190.2656 L108.5625 191.9531 L111.375 191.9531 Q112.5 191.9531 116.7188 187.4531 ZM141.4688 220.7812 L141.4688 219.0938 Q139.7812 217.2656 138.9375 217.2656 L135.5625 217.2656 Q135.8438 217.9688 138.375 220.7812 L141.4688 220.7812 ZM118.9688 204.4688 L117 204.4688 Q115.0312 204.4688 109.8281 208.8281 L111.9375 208.8281 Q114.4688 207.7031 118.9688 204.4688 ZM90.1406 203.9062 Q88.3125 200.25 85.7812 200.25 L83.8125 200.25 L83.8125 202.9219 Q84.0938 202.9219 84.7188 203.4219 Q85.3594 203.9062 85.9219 203.9062 L90.1406 203.9062 Z" stroke="none" />
    </g>
  </g>
</svg>
