<?xml version="1.0" encoding="UTF-8"?>
<svg id="Layer_1" xmlns="http://www.w3.org/2000/svg" version="1.1" xmlns:xlink="http://www.w3.org/1999/xlink" viewBox="0 0 419.79 92.41">
  <!-- Generator: Adobe Illustrator 29.6.1, SVG Export Plug-In . SVG Version: 2.1.1 Build 9)  -->
  <defs>
    <style>
      .st0 {
        fill: #fff;
      }

      .st1 {
        fill: #ffb000;
        font-family: Montserrat-Regular, Montserrat;
        font-size: 43.36px;
      }

      .st2 {
        fill: url(#linear-gradient);
      }
    </style>
    <linearGradient id="linear-gradient" x1="34.34" y1="43.76" x2="103.15" y2="43.76" gradientUnits="userSpaceOnUse">
      <stop offset="0" stop-color="#ff9100"/>
      <stop offset=".75" stop-color="#ffc500"/>
      <stop offset="1" stop-color="#ffd800"/>
    </linearGradient>
  </defs>
  <g>
    <path class="st0" d="M127,77.64c-3.6,0-7.06-.47-10.37-1.41s-5.93-2.08-7.87-3.43l3.87-7.66c1.94,1.24,4.25,2.26,6.94,3.07,2.69.81,5.38,1.21,8.07,1.21,3.17,0,5.47-.43,6.9-1.29,1.42-.86,2.14-2.02,2.14-3.47,0-1.18-.48-2.08-1.45-2.7-.97-.62-2.23-1.09-3.79-1.41-1.56-.32-3.29-.62-5.2-.89-1.91-.27-3.82-.63-5.73-1.09-1.91-.46-3.64-1.13-5.2-2.02-1.56-.89-2.82-2.08-3.79-3.59-.97-1.51-1.45-3.5-1.45-5.97,0-2.74.78-5.12,2.34-7.14,1.56-2.02,3.75-3.58,6.57-4.68,2.82-1.1,6.17-1.65,10.04-1.65,2.9,0,5.83.32,8.79.97,2.96.65,5.41,1.56,7.34,2.74l-3.87,7.66c-2.04-1.24-4.1-2.08-6.17-2.54-2.07-.46-4.13-.69-6.17-.69-3.07,0-5.34.46-6.82,1.37-1.48.92-2.22,2.07-2.22,3.47,0,1.29.48,2.26,1.45,2.9.97.65,2.23,1.16,3.79,1.53,1.56.38,3.29.69,5.2.93,1.91.24,3.8.61,5.69,1.09,1.88.48,3.62,1.14,5.2,1.98,1.59.83,2.86,2,3.83,3.51.97,1.51,1.45,3.47,1.45,5.89,0,2.69-.79,5.03-2.38,7.02-1.59,1.99-3.83,3.54-6.74,4.64-2.9,1.1-6.37,1.65-10.41,1.65Z"/>
    <path class="st0" d="M172.98,77.64c-4.41,0-8.34-.95-11.78-2.86-3.44-1.91-6.16-4.53-8.15-7.87-1.99-3.33-2.99-7.13-2.99-11.38s.99-8.11,2.99-11.42c1.99-3.31,4.71-5.9,8.15-7.79,3.44-1.88,7.37-2.82,11.78-2.82s8.43.94,11.9,2.82c3.47,1.88,6.18,4.46,8.15,7.75,1.96,3.28,2.94,7.1,2.94,11.46s-.98,8.04-2.94,11.38c-1.96,3.34-4.68,5.96-8.15,7.87-3.47,1.91-7.44,2.86-11.9,2.86ZM172.98,69.01c2.47,0,4.68-.54,6.62-1.61,1.94-1.08,3.46-2.63,4.56-4.68,1.1-2.04,1.65-4.44,1.65-7.18s-.55-5.2-1.65-7.22c-1.1-2.02-2.62-3.56-4.56-4.64-1.94-1.08-4.11-1.61-6.53-1.61s-4.67.54-6.57,1.61c-1.91,1.08-3.43,2.62-4.56,4.64-1.13,2.02-1.69,4.42-1.69,7.22s.56,5.14,1.69,7.18c1.13,2.04,2.65,3.6,4.56,4.68,1.91,1.08,4.07,1.61,6.49,1.61Z"/>
    <path class="st0" d="M202.43,77.08v-43.08h9.6v11.86l-1.13-3.47c1.29-2.9,3.32-5.11,6.09-6.62,2.77-1.51,6.22-1.45,10.37-1.45v8.07c-5.12,0-9.2,1.6-11.46,3.83-2.26,2.23-3.39,5.55-3.39,9.96v20.89h-10.08Z"/>
    <path class="st0" d="M231.79,42.39v-8.07h28.72v8.07h-28.72ZM253.74,77.64c-4.73,0-8.39-1.22-10.97-3.67-2.58-2.45-3.87-6.06-3.87-10.85V24.48h10.08v38.4c0,2.04.52,3.63,1.57,4.76s2.51,1.69,4.4,1.69c2.26,0,4.14-.59,5.65-1.77l2.82,7.18c-1.18.97-2.64,1.69-4.36,2.18-1.72.48-3.5.73-5.32.73Z"/>
    <path class="st0" d="M275.81,26.9c-1.88,0-3.43-.59-4.64-1.77-1.21-1.18-1.82-2.61-1.82-4.28s.61-3.16,1.82-4.32c1.21-1.16,2.76-1.73,4.64-1.73s3.43.55,4.64,1.65c1.21,1.1,1.82,2.49,1.82,4.15,0,1.77-.59,3.27-1.77,4.48-1.18,1.21-2.74,1.81-4.68,1.81ZM270.73,77.08v-43.08h10.08v43.08h-10.08Z"/>
    <path class="st0" d="M290.43,77.08v-43.08h9.6v11.86l-1.13-3.47c1.29-2.9,3.32-5.11,6.09-6.62,2.77-1.51,6.22-2.26,10.37-2.26v9.6c-.43-.11-.83-.17-1.21-.2-.38-.03-.75-.04-1.13-.04-3.82,0-6.86,1.12-9.12,3.35-2.26,2.23-3.39,5.55-3.39,9.96v20.89h-10.08Z"/>
  </g>
  <text class="st1" transform="translate(309.03 77.08)"><tspan x="0" y="0">.com</tspan></text>
  <g>
    <g>
      <rect class="st0" x="24.35" y="8.04" width="10.87" height="23.1" rx="5.43" ry="5.43" transform="translate(-2.18 3.8) rotate(-7.04)"/>
      <rect class="st0" x="59.22" y="3.73" width="10.87" height="23.1" rx="5.43" ry="5.43" transform="translate(-1.39 8.04) rotate(-7.04)"/>
    </g>
    <path class="st0" d="M93.07,65.38l-4.77-38.65c-.95-7.69-7.96-13.16-15.65-12.21l-50.79,6.27c-7.69.95-13.16,7.96-12.21,15.65l4.77,38.65c.95,7.69,7.96,13.16,15.65,12.21l50.79-6.27c7.69-.95,13.16-7.96,12.21-15.65ZM73.6,72.25l-38.63,4.77c-4.12.51-7.87-2.42-8.38-6.53l-3.64-29.49c-.18-1.44.85-2.75,2.29-2.93l48.32-5.97c1.44-.18,2.75.85,2.93,2.29l3.64,29.49c.51,4.12-2.42,7.87-6.53,8.38Z"/>
  </g>
  <path class="st2" d="M46.65,41.76l14.47,16.32-10.25-.31,41.69-38.81c2.03-1.89,5.2-1.77,7.08.25,1.8,1.93,1.77,4.92,0,6.83l-38.81,41.69c-2.56,2.75-6.88,2.91-9.63.34-.16-.15-.31-.3-.45-.46l-.17-.19-14.47-16.32c-2.58-2.91-2.32-7.36.59-9.94s7.36-2.32,9.94.59Z"/>
</svg>