<?xml version="1.0" encoding="utf-8"?>
<!-- Generator: Adobe Illustrator 29.6.1, SVG Export Plug-In . SVG Version: 9.03 Build 0)  -->
<svg version="1.1" baseProfile="tiny" id="Layer_1" xmlns="http://www.w3.org/2000/svg" xmlns:xlink="http://www.w3.org/1999/xlink"
	 x="0px" y="0px" viewBox="0 0 100 99.07" overflow="visible" xml:space="preserve">
<g>
	<g>
		<path d="M50,51.68c12.05,0,21.85-12.79,21.85-24.83S62.05,5,50,5s-21.85,9.8-21.85,21.85C28.15,38.9,37.95,51.68,50,51.68z"/>
		<path d="M66.4,51.91c-4.24,3.23-9.53,5.15-15.25,5.15h-2.3c-5.73,0-11.02-1.92-15.25-5.15c-13.84,2.24-24.4,14.23-24.4,28.7
			C9.19,88.56,27.46,95,50,95c22.54,0,40.81-6.44,40.81-14.39C90.81,66.14,80.24,54.15,66.4,51.91z"/>
	</g>
</g>
</svg>
