<?xml version="1.0" encoding="UTF-8"?>
<svg id="Layer_2" xmlns="http://www.w3.org/2000/svg" version="1.1" viewBox="0 0 100 100">
  <!-- Generator: Adobe Illustrator 29.4.0, SVG Export Plug-In . SVG Version: 2.1.0 Build 152)  -->
  <path d="M32.19,32.2c-5.68,5.66-5.68,14.85,0,20.54,5.66,5.67,14.85,5.67,20.54,0,5.67-5.68,5.67-14.87,0-20.54-5.68-5.68-14.87-5.68-20.54,0ZM52.94,36.28c-5.54-5.54-14.52-5.54-20.06,0-.85.85-1.55,1.79-2.15,2.78.51-2.12,1.58-4.15,3.24-5.81,4.79-4.8,12.56-4.8,17.36,0,1.3,1.3,2.23,2.83,2.83,4.44-.38-.49-.77-.96-1.22-1.41Z"/>
  <path d="M50,1.43C23.17,1.43,1.43,23.17,1.43,50s21.75,48.57,48.57,48.57,48.57-21.75,48.57-48.57S76.83,1.43,50,1.43ZM54.27,59.32c-8.03,5.65-19.21,4.87-26.37-2.29-8.05-8.05-8.05-21.08,0-29.12,8.03-8.05,21.07-8.05,29.12,0,7.19,7.18,7.94,18.33,2.28,26.37-.04.09-.11.17-.17.26-.62.87-1.32,1.69-2.12,2.48-.74.75-1.51,1.41-2.33,2-.14.09-.26.2-.4.3ZM76.69,76.7c-1.92,1.92-5.04,1.92-6.96,0l-14.42-16.22c.1-.06.19-.14.28-.2.89-.62,1.72-1.33,2.54-2.15.85-.86,1.59-1.74,2.26-2.67.03-.05.06-.09.09-.14l16.22,14.42c1.92,1.93,1.92,5.04,0,6.96Z"/>
</svg>