<?xml version="1.0" encoding="UTF-8"?>
<svg id="Layer_1" xmlns="http://www.w3.org/2000/svg" version="1.1" viewBox="0 0 90 79.27">
  <!-- Generator: Adobe Illustrator 29.7.1, SVG Export Plug-In . SVG Version: 2.1.1 Build 8)  -->
  <g>
    <path d="M30.1,42.9c-8,7.4-16.2,14.5-24.7,21.3-2.2,1.7-2.2,4.9,0,7.2,2.4,2.4,3.6,3.6,6,6,2.2,2.2,5.4,2.2,7.2,0,6.7-8.4,13.7-16.5,21-24.4-3.1-3.4-6.3-6.8-9.5-10.1Z" fill="#06343a"/>
    <path d="M89.4,29.9l-3.8-3.8c-.8-.8-2.2-.8-3,0l-1.3,1.3c-1.1-.3-2.4-.8-2.8-1.2-1.3-1.3-1.4-4.9-1.4-5.8v-.3c.1-.5.3-2.1-.3-2.7-.8-.9-10.8-10.9-10.8-10.9,0,0-10.6-9.7-29.4-5-.7.2-1.2.8-1.2,1.5,0,.3,0,.5-.1.8-.1.8.5,1.6,1.4,1.7,4.6.7,18.7,3.4,19.4,11.5h0c-4.2,4.5-8.6,9-13,13.4,3.1,3,6.3,6,9.5,9,4-4,8-7.9,12.1-11.8,2.8.2,7.4,2.1,9.3,6.9l-1.4,1.5c-.8.8-.8,2.2,0,3l3.8,3.8c.8.8,2.2.8,3,0l9.9-9.9c.9-.8.9-2.2.1-3h0Z" fill="#06343a"/>
  </g>
  <path d="M31.8,20.3c1.4-5.4,0-11.3-4.2-15.5C22.9,0,16-1.2,10.1,1.2c-.8.3-.9,1.4-.2,1.8l8,5.3c2,1.3,1.8,5.2-.5,8.6-2.3,3.4-5.7,5.1-7.7,3.8L1.6,15.4c-.7-.5-1.7,0-1.7.9,0,4.3,1.8,8.6,5.3,11.8,4.2,3.8,9.9,5,15,3.6.9-.2,1.9,0,2.6.7,14.5,14,27.6,29.3,41.2,44.3,3.2,3.6,9,3.3,12.5-.2s3.7-9.2.2-12.5c-15-13.5-30.2-26.5-44.3-41-.6-.8-.9-1.8-.6-2.7ZM72.9,72.9c-1.4,1.4-3.6,1.4-5,0s-1.4-3.6,0-5,3.6-1.4,5,0c1.3,1.4,1.3,3.6,0,5Z" fill="#06343a"/>
</svg>