<?xml version="1.0" encoding="UTF-8"?>
<svg id="Layer_1" xmlns="http://www.w3.org/2000/svg" version="1.1" viewBox="0 0 100 105.1">
  <!-- Generator: Adobe Illustrator 29.7.1, SVG Export Plug-In . SVG Version: 2.1.1 Build 8)  -->
  <defs>
    <style>
      .st0 {
        fill-rule: evenodd;
      }
    </style>
  </defs>
  <path class="st0" d="M32.12,12.78c0-3.75,3.04-6.78,6.78-6.78h22.2c3.75,0,6.78,3.04,6.78,6.78v1.23h16.65c1.36,0,2.47,1.1,2.47,2.47s-1.1,2.47-2.47,2.47H15.47c-1.36,0-2.47-1.1-2.47-2.47s1.1-2.47,2.47-2.47h16.65v-1.23ZM64.18,12.78v1.23h-28.37v-1.23c0-1.7,1.38-3.08,3.08-3.08h22.2c1.7,0,3.08,1.38,3.08,3.08ZM19.17,20.18h61.67l-7.66,71.97c-.1,1.28-1.1,2.25-2.29,2.24l-41.76-.43c-1.2-.01-2.19-1.01-2.29-2.29l-7.66-71.5ZM30.05,42.07c-.13-1.7,1.13-3.18,2.83-3.32,1.7-.13,3.18,1.13,3.32,2.83l3.66,36.78c.13,1.7-1.06,3.17-2.64,3.29-1.58.12-2.97-1.16-3.09-2.86l-4.08-36.72ZM67.12,38.75c1.7.13,2.96,1.62,2.83,3.32l-4.08,37.05c-.13,1.7-1.51,2.95-3.09,2.8-1.58-.15-2.76-1.65-2.64-3.34l3.66-36.99c.13-1.7,1.62-2.96,3.32-2.83ZM53.7,41.77c0-1.7-1.38-3.08-3.08-3.08s-3.08,1.38-3.08,3.08l.17,36.98c0,1.7,1.29,3.1,2.87,3.11s2.87-1.35,2.87-3.05l.25-37.04Z"/>
</svg>